<svg xmlns="http://www.w3.org/2000/svg">

  <symbol id="arrow-scroll" viewBox="0 0 28.685 14.479" >
    <path fill="#FFFFFF" d="M14.332,14.479c-1.279,0-2.554-0.486-3.525-1.458L0.268,1.681c-0.376-0.404-0.353-1.037,0.052-1.413
			c0.403-0.374,1.036-0.354,1.413,0.052l10.514,11.314c1.145,1.143,3.049,1.142,4.218-0.026L26.952,0.319
			c0.378-0.405,1.011-0.426,1.413-0.052c0.404,0.376,0.428,1.009,0.052,1.413L17.903,12.995
			C16.913,13.986,15.62,14.479,14.332,14.479z"/>
  </symbol>

  <symbol id="beef" viewBox="0 0 44 39.212">
    <path fill="#E35028" d="M40.158,13.595c-0.365-0.693-0.732-1.389-1.098-2.089c1.488-1.032,2.652-2.173,3.48-3.356
      c-0.433-0.464-0.864-0.93-1.296-1.394c0.071-0.068,0.142-0.135,0.212-0.202c0.405,0.466,0.811,0.933,1.216,1.399
      c1.569-2.361,1.788-4.88,0.437-7.056l-0.281-0.451l-0.873,0.918c-0.351,0.37-0.687,0.726-1.032,1.072
      c-0.261,0.26-0.522,0.504-0.784,0.74c-0.006,0.053-0.018,0.097-0.041,0.119c-0.088,0.087-0.211,0.162-0.342,0.211
      c-3.408,2.896-7.048,3.787-11.621,2.893c-1.215-0.237-2.563-0.353-4.123-0.353c-1.438,0-2.914,0.096-4.341,0.189
      c-1.389,0.09-2.825,0.184-4.216,0.188c-0.358,0-0.723,0.011-1.089,0.02c0.013,0.042,0.031,0.082,0.043,0.124
      c0.044,0.155-0.03,0.438-0.148,0.519c-0.115,0.078-0.417,0.038-0.532-0.066c-0.2-0.183-0.355-0.365-0.468-0.557
      c-0.076,0-0.152,0.004-0.228,0.004c-0.968,0-2.089-0.051-3.072-0.435C9.028,5.668,8.135,5.155,7.263,4.596
      c0.096-0.111,0.17-0.235,0.212-0.375C7.521,4.073,7.437,3.75,7.338,3.714C7.096,3.628,6.694,3.771,6.353,3.998
      C6.071,3.806,5.79,3.613,5.513,3.421c-0.438-0.304-0.88-0.6-1.322-0.895C4.079,2.644,3.943,2.734,3.789,2.782
      c-0.307,0.095-0.62,0.171-1.09,0.298C2.871,2.604,3.01,2.2,3.152,1.818C2.922,1.653,2.675,1.469,2.385,1.253
      c-0.306-0.228-0.657-0.49-1.081-0.799L0.682,0L0.651,0.77C0.453,5.66,2.096,9.035,5.814,11.351
      c-0.349,0.453-0.701,0.882-1.042,1.299c-0.914,1.115-1.776,2.168-2.342,3.377c-1.503,3.21-2.152,4.841-1.61,5.917
      c0.498,0.988,1.82,1.257,4.221,1.744c0.381,0.077,0.792,0.16,1.23,0.253c1.222,0.257,1.723,0.563,2.107,1.772
      c1.494,4.707,4.339,8.592,8.457,11.545c1.806,1.296,3.62,1.953,5.392,1.953c1.625,0,3.15-0.564,4.542-1.665
      c-0.257-0.102-0.514-0.212-0.77-0.276c-0.171-0.043-0.166-0.771-0.258-1.268c0.752,0.161,1.303,0.28,1.902,0.407
      c0.051,0.077,0.107,0.167,0.167,0.26c0.274-0.238,0.547-0.48,0.818-0.725c-0.122,0.469-0.234,0.902-0.323,1.245
      c0.49-0.225,1.039-0.475,1.59-0.729c-0.138-0.481-0.437-0.819-0.789-0.956c2.003-1.851,3.842-3.873,5.003-6.181
      c1.035-2.056,1.94-3.844,3.43-4.967c0.033,0.01,0.06,0.019,0.095,0.029c-0.022-0.025-0.035-0.037-0.056-0.06
      c0.937-0.694,2.104-1.127,3.679-1.198c1.229-0.056,1.798-0.595,2.059-1.037c0.412-0.699,0.358-1.653-0.154-2.684
      C42.193,17.458,41.159,15.495,40.158,13.595z M3.724,5.456l6.922,3.803c-0.125,0.04-0.243,0.08-0.357,0.118
      C9.649,9.589,9.183,9.753,8.793,9.682C6.348,9.246,4.716,7.894,3.724,5.456z M6.114,12.583c0.302,0.276,0.578,0.526,0.884,0.806
      c-0.354,0.032-0.808,0.073-1.526,0.139C5.789,13.061,5.946,12.83,6.114,12.583z M3.161,20.815c0.678-2.413,1.51-4.372,2.934-5.935
      c-0.162,0.337-0.303,0.646-0.08,1.046c0.21,0.379,0.305,0.82,0.48,1.221c0.049,0.113,0.228,0.271,0.299,0.249
      c0.133-0.041,0.317-0.187,0.332-0.306c0.112-0.924-0.211-1.724-0.715-2.549c0.5-0.497,1.064-0.954,1.72-1.365l-0.43,4.689
      c0.27-0.183,0.66-0.253,1.188-0.194c-0.57,0.348-0.567,1.261-1.291,1.326L7.35,21.691L3.161,20.815z M7.721,20.954
      c0.599-0.104,1.03-0.203,1.464-0.223c0.057-0.003,0.256,0.514,0.178,0.6c-0.248,0.276-0.596,0.463-0.955,0.719
      C8.167,21.666,8.002,21.401,7.721,20.954z M27.728,33.825c0.107-0.262,0.183-0.543,0.195-0.792
      c0.052-0.977,0.052-0.977-0.669-2.022c0.054,0.544,0.146,1.083,0.322,1.596c0.151,0.441-0.007,0.938-0.434,1.073
      c-0.395,0.128-0.784,0.721-0.632,1.067c0.01,0.021,0.023,0.042,0.033,0.063c-0.202,0.158-0.399,0.318-0.609,0.475
      c-1.395,1.038-2.583,1.521-3.738,1.521c0,0,0,0,0,0c-1.04,0-2.127-0.381-3.468-1.217c-0.135,0-0.271,0-0.406,0
      c-0.016-0.082-0.032-0.162-0.047-0.244c0.019-0.004,0.038-0.009,0.057-0.014c-0.041-0.026-0.079-0.049-0.121-0.077
      c-1.203-0.813-2.289-1.762-3.252-2.811c0.103,0.035,0.198,0.067,0.293,0.096c0.392,0.118,0.764-0.164,0.636-0.521
      c-0.309-0.854,0.095-1.402,0.79-1.938c-0.427-0.293-0.689-0.273-0.828,0.232c-0.077,0.286-0.193,0.561-0.314,0.83
      c-0.281,0.624-0.72,0.681-1.18,0.164c-0.08-0.092-0.159-0.182-0.228-0.261c-0.088,0.035-0.183,0.058-0.265,0.083
      c-1.343-1.755-2.368-3.733-3.048-5.826c0.405,0.182,0.844,0.089,1.275,0.061c0.009-0.086,0.018-0.172,0.028-0.258
      c-0.463-0.03-0.925-0.061-1.387-0.089c-0.001,0.011-0.002,0.021-0.003,0.031c-1.01-3.261-1.178-6.786-0.349-10.179
      c-0.78-0.028-1.563-0.029-2.342-0.177c0.787,0,1.575,0.033,2.358-0.009c0.009,0,0.018-0.002,0.027-0.002
      c0.025-0.099,0.041-0.199,0.068-0.297c0.292-1.064,0.769-2.245,1.539-3.248c-0.209-1.098-0.419-2.202-0.628-3.297
      c0.097-0.045,0.193-0.091,0.29-0.136c0.135,0.261,0.256,0.531,0.407,0.782c0.144,0.238,0.318,0.458,0.479,0.685
      c0.227-0.213,0.502-0.394,0.667-0.647c0.171-0.263,0.236-0.595,0.394-1.025c0.237,0.53,0.417,0.931,0.579,1.295
      c-0.397,0.339-0.427,0.552-0.314,0.718c0.58-0.314,1.241-0.546,2.006-0.653c2.378-0.331,4.765-0.499,7.094-0.499
      c1.411,0,2.811,0.063,4.164,0.185c1.142,0.104,2.145,0.432,3.028,0.924c-0.034,0.165,0.07,0.344,0.333,0.773
      c0.104-0.195,0.18-0.339,0.229-0.455c1.664,1.153,2.767,3.057,3.199,5.604c0.168,0.986,0.239,1.988,0.303,2.872
      c0.026,0.365,0.05,0.705,0.077,0.973C34.347,25.087,32.178,29.878,27.728,33.825z M33.852,9.41l7.091-3.355
      c-0.688,1.948-2.111,3.153-4.33,3.672l-0.395,0.096c-0.438,0.111-0.891,0.226-1.279,0.226C34.574,10.048,34.171,9.964,33.852,9.41z
      M37.304,22.299c-0.05-0.147-0.099-0.296-0.148-0.443c0.804-0.231,1.606-0.464,2.41-0.696c0.039,0.119,0.078,0.237,0.119,0.355
      C38.891,21.776,38.097,22.037,37.304,22.299z M36.964,21.748l-0.854-8.54c1.001,0.591,1.79,1.29,2.442,2.104
      c-0.039-0.662,0.475-0.591,0.986-0.422c0.047,1.605,0.047,1.605,0.5,1.704c-0.074,0.195-0.164,0.43-0.26,0.68
      c0.496,1.024,0.891,2.184,1.254,3.494L36.964,21.748z"/>
    <path fill="#E35028" d="M19.406,4.425c0.239,0.177,0.443,0.399,0.664,0.602c0.168-0.227,0.336-0.455,0.442-0.596
      c-0.841-1.107-1.609-2.118-2.377-3.129c-0.069,0.018-0.138,0.036-0.207,0.053c0.014,0.204-0.054,0.483,0.054,0.598
      C18.653,2.667,18.571,3.809,19.406,4.425z"/>
    <path fill="#E35028" d="M10.975,34.778c-0.079,0.35-0.201,0.688-0.216,1.029c-0.01,0.23,0.13,0.469,0.203,0.702
      c0.145-0.147,0.29-0.292,0.446-0.452c0.354,0.332,0.754,0.707,1.154,1.082C12.362,36.121,11.978,35.258,10.975,34.778z"/>
    <path fill="#E35028" d="M33.199,5.524c-0.323-0.064-0.643-0.155-0.969-0.185c-0.267-0.024-0.518,0.027-0.512-0.379
      c0.006-0.405-0.244-0.428-0.568-0.32c-0.555,0.186-0.789,0.514-0.533,1.168C31.443,4.935,32.285,5.909,33.199,5.524z"/>
    <path fill="#E35028" d="M22.787,9.299c-0.089-0.125-0.319-0.184-0.492-0.201c-0.069-0.007-0.187,0.168-0.233,0.281
      c-0.148,0.363-0.273,0.736-0.443,1.207c0.332-0.09,0.551-0.143,0.767-0.21C22.809,10.246,23.044,9.663,22.787,9.299z"/>
    <path fill="#E35028" d="M29.195,11.368c-0.457,0.949-0.384,1.467,0.188,1.991c0.08,0.073,0.293,0.102,0.374,0.047
      c0.083-0.057,0.136-0.256,0.104-0.366c-0.086-0.303-0.221-0.591-0.338-0.885C29.436,11.943,29.347,11.733,29.195,11.368z"/>
    <path fill="#E35028" d="M28.314,37.874c-0.457,0.373-0.378,0.809,0.156,1.048c0.336-0.492,0.67-0.985,1.004-1.479
      c-0.051-0.043-0.103-0.086-0.154-0.13C28.982,37.495,28.607,37.635,28.314,37.874z"/>
    <path fill="#E35028" d="M34.806,31.399c0.163,0.148,0.33,0.422,0.488,0.416c0.205-0.006,0.403-0.232,0.747-0.459
      c-0.3-0.262-0.544-0.557-0.616-0.52C35.186,30.958,35.008,31.202,34.806,31.399z"/>
    <path fill="#E35028" d="M30.24,5.152c-0.539-0.444-1.014-0.834-1.563-1.287C28.648,4.547,29.625,5.354,30.24,5.152z"/>
    <path fill="#E35028" d="M37.614,21.56c0.131-0.564,0.261-1.128,0.41-1.77C37.404,20.063,37.17,20.883,37.614,21.56z"/>
    <path fill="#E35028" d="M23.386,34.294c-0.671,0-1.226,0-1.873,0C21.897,34.792,22.53,34.784,23.386,34.294z"/>
    <path fill="#E35028" d="M19.415,26.608c0.106,0.228,0.214,0.451,0.314,0.68c0.094,0.213,0.179,0.433,0.269,0.649
      C20.197,26.892,19.998,26.507,19.415,26.608z"/>
    <path fill="#E35028" d="M20.738,35.344c-0.03-0.013-0.193,0.163-0.202,0.259c-0.007,0.072,0.127,0.178,0.22,0.23
      c0.209,0.119,0.432,0.215,0.741,0.366c0-0.161,0.061-0.384-0.011-0.443C21.266,35.58,21,35.456,20.738,35.344z"/>
    <path fill="#E35028" d="M8.55,31.523c0.042-0.046,0.084-0.093,0.127-0.14c-0.3-0.276-0.6-0.553-1.004-0.924
      C7.571,31.394,8.057,31.462,8.55,31.523z"/>
    <path fill="#E35028" d="M17.395,10.737c0.061-0.061,0.026-0.347-0.032-0.371c-0.146-0.059-0.35-0.079-0.491-0.02
      c-0.181,0.078-0.323,0.248-0.475,0.373c0.178,0.074,0.356,0.196,0.541,0.208C17.091,10.936,17.284,10.847,17.395,10.737z"/>
    <path fill="#E35028" d="M38.097,29.659c0.082,0.084,0.166,0.17,0.248,0.256c0.231-0.309,0.462-0.618,0.73-0.977
      C38.455,28.825,38.173,29.062,38.097,29.659z"/>
    <path fill="#E35028" d="M0,6.143c0.249,0.297,0.459,0.549,0.669,0.8C0.784,6.215,0.636,6.062,0,6.143z"/>
    <path fill="#E35028" d="M34.19,32.065c0.09,0.33,0.18,0.66,0.269,0.99c0.063-0.015,0.127-0.031,0.189-0.048
      C34.808,32.62,34.705,32.29,34.19,32.065z"/>
    <path fill="#E35028" d="M19.35,14.179c-0.333-0.382-0.665-0.765-0.999-1.148c-0.049,0.047-0.099,0.095-0.148,0.143
      c0.345,0.372,0.691,0.744,1.036,1.116C19.276,14.252,19.313,14.215,19.35,14.179z"/>
    <path fill="#E35028" d="M28.664,5.764c0.111-0.165,0.252-0.318,0.315-0.499c0.024-0.07-0.127-0.202-0.284-0.43
      c-0.148,0.304-0.271,0.472-0.301,0.656C28.38,5.564,28.568,5.672,28.664,5.764z"/>
    <ellipse fill="#E35028" cx="18.219" cy="20.872" rx="2.027" ry="1.834"/>
    <path fill="#E35028" d="M29.324,20.224c-0.111-0.207-0.209-0.438-0.41-0.638c-0.173-0.214-0.396-0.413-0.678-0.565
      c-0.26-0.166-0.593-0.267-0.908-0.321c-0.328-0.048-0.645-0.032-0.945,0.027c-0.288,0.07-0.566,0.164-0.791,0.301
      c-0.467,0.256-0.797,0.596-1.012,0.929c-0.227,0.314-0.338,0.64-0.396,0.868c-0.042,0.223-0.039,0.361-0.039,0.361
      s0.125-0.041,0.345-0.111c0.189-0.051,0.46-0.123,0.784-0.209c0.309-0.073,0.642-0.152,0.951-0.187
      c0.156-0.03,0.302-0.021,0.438-0.036c0.134,0.011,0.258,0.006,0.369,0.033c0.115,0.016,0.223,0.037,0.34,0.08
      c0.055,0.025,0.115,0.044,0.182,0.057c0.06,0.035,0.119,0.073,0.187,0.102c0.138,0.047,0.261,0.158,0.398,0.236
      c0.144,0.072,0.268,0.186,0.399,0.275c0.12,0.099,0.264,0.176,0.367,0.27c0.104,0.09,0.215,0.164,0.303,0.229
      c0.182,0.126,0.306,0.198,0.306,0.198s0.034-0.13,0.06-0.356c0.017-0.226,0.054-0.558-0.051-0.932
      C29.474,20.646,29.443,20.43,29.324,20.224z"/>
  </symbol>

  <symbol id="logo" viewBox="0 0 98.265 74.317">
    <path fill="#E55028" d="M70.098,32.877c-0.951,1.28-2.524,2.065-4.392,2.152c-2.689,0.125-3.996-2.211-4.227-7.18
      c-0.195-4.222,0.7-12.311,0.555-15.448L61.93,10.16c-0.896,0.041-5.063,17.529-7.315,20.628c-0.664,1.004-1.783,1.918-3.164,1.981
      c-3.176,0.147-5.363-3.42-5.619-8.948c-0.168-3.625,0.494-10.318,0.141-17.937c-0.038-0.824-0.203-1.152-0.352-1.146
      c-2.989,0.139-9.656,20.25-9.976,30.298c-0.044,1.463,0.219,3.921,0.578,5.215c-3.605-0.244-7.463-0.29-7.631-3.914
      c-0.154-3.324,1.577-10.404,3.644-16.679c1.444-4.371,7.037-19.38,12.939-19.653c6.537-0.304,5.774,11.524,6.294,22.693
      c0.083,1.791,0.144,3.101,0.375,4.063C57.981,8.958,59.122,3.7,62.783,3.531c2.093-0.098,3.717,2.635,3.887,6.296
      c0.099,2.129,0.073,6.435,0.195,9.05C67.411,30.645,68.626,30.214,70.098,32.877z"/>
    <path fill="#E55028" d="M90.098,15.69c-0.048,2.364-6.179,11.961-12.003,11.842c-3.201-0.066-4.799-2.139-4.742-4.866
      c0.049-2.365,1.189-4.745,2.058-6.295c-5.588-0.951-6.262-3.551-6.231-5.006c0.059-2.911,2.857-4.384,4.64-4.348
      c1.419,0.029,1.832,1.202,1.816,1.968c-0.019,0.872-0.402,1.921-1.013,3.181c2.754,0.678,7.269,0.732,7.225,2.882
      c-0.04,1.964-3.348,5.211-3.402,7.868c-0.02,0.981,0.404,1.536,1.17,1.552c3.057,0.063,6.985-6.848,8.766-10.234
      C89.649,14.479,90.112,14.964,90.098,15.69z"/>
    <path fill="#F9B43B" d="M94.032,41.441c-0.035,1.723-4.502,8.716-8.745,8.629c-2.334-0.048-3.497-1.558-3.456-3.546
      c0.035-1.725,0.867-3.457,1.5-4.587c-4.072-0.693-4.563-2.588-4.541-3.647c0.043-2.121,2.082-3.194,3.381-3.168
      c1.033,0.021,1.334,0.876,1.322,1.434c-0.013,0.636-0.293,1.399-0.736,2.318c2.006,0.494,5.295,0.533,5.263,2.099
      c-0.029,1.433-2.438,3.797-2.478,5.733c-0.016,0.716,0.295,1.12,0.852,1.132c2.228,0.046,5.09-4.99,6.387-7.458
      C93.706,40.559,94.044,40.912,94.032,41.441z"/>
    <path fill="#F9B43B" d="M94.715,58.909c-0.028,1.357-3.547,6.866-6.89,6.798c-1.838-0.038-2.756-1.228-2.723-2.794
      c0.027-1.356,0.683-2.724,1.181-3.613c-3.207-0.545-3.595-2.038-3.577-2.873c0.035-1.671,1.641-2.516,2.664-2.495
      c0.814,0.017,1.052,0.689,1.043,1.13c-0.011,0.499-0.231,1.103-0.582,1.825c1.58,0.39,4.173,0.42,4.147,1.655
      c-0.023,1.127-1.923,2.989-1.954,4.517c-0.011,0.562,0.232,0.881,0.673,0.89c1.754,0.036,4.01-3.932,5.031-5.876
      C94.458,58.215,94.724,58.492,94.715,58.909z"/>
    <path fill="#8BC334" d="M88.913,25.685c0.041-1.983,2.199-3.441,4.765-3.389c2.612,0.053,4.619,1.308,4.587,2.902
      c-0.053,2.565-2.671,5.125-5.283,5.072C90.368,30.217,88.882,27.185,88.913,25.685z"/>
    <path fill="#F9B43B" d="M50.903,68.48c0.025-1.241,1.375-2.152,2.979-2.119c1.633,0.033,2.889,0.817,2.867,1.814
      c-0.032,1.604-1.669,3.204-3.303,3.171C51.812,71.313,50.884,69.418,50.903,68.48z"/>
    <path fill="#E55028" d="M30.218,46.802c0.025-1.241,1.375-2.152,2.979-2.119c1.633,0.033,2.888,0.817,2.868,1.815
      c-0.033,1.603-1.669,3.203-3.303,3.17C31.127,49.635,30.198,47.739,30.218,46.802z"/>
    <path fill="#F9B43B" d="M60.528,55.991c-0.062,2.992-2.562,6.684-8.605,6.56c-3.441-0.07-5.892-1.707-5.856-3.444
      c0.011-0.508,0.35-0.98,0.894-1.297c0.917,0.556,2.042,1.148,4.197,1.192c3.381,0.069,4.955-2.262,5.003-4.596
      c0.046-2.273-1.325-3.92-3.36-4.021c-1.734-0.036-3.321-0.037-4.502,0.626c-0.981-0.349-1.446-1.047-1.432-1.705
      c0.026-1.257,1.053-1.744,2.37-1.718c0.568,0.012,1.166,0.113,1.759,0.275c2.111-0.735,5.241-3.005,5.307-6.237
      c0.057-2.751-2.271-4.477-6.131-4.556c-0.809-0.017-1.648,0.057-2.519,0.158c0.202,0.334,0.315,0.666,0.309,0.994
      c-3.89,7.224-4.585,22.177-1.9,26.931c-0.398,0.441-2.318,0.642-3.185,0.624c-2.154-0.044-3.536-1.33-3.762-3.43
      c-0.854-6.542,1.331-16.736,3.201-21.785c0.256-0.804,0.539-1.456,0.85-2.049c-1.419,0.599-2.662,1.383-3.578,2.23
      c-0.982-0.288-1.657-0.932-1.645-1.56c0.004-0.209,0.068-0.388,0.191-0.596c0.683-1.152,5.832-4.1,12.624-3.961
      c8.826,0.182,11.26,4.183,11.205,6.815c-0.078,3.799-4.174,6.471-7.244,7.335C58.62,49.757,60.591,52.97,60.528,55.991z"/>
    <path fill="#F9B43B" d="M84.269,41.924c-0.025,1.235-4.68,9.245-9.137,9.153c-1.82-0.037-2.973-1.038-3.353-3.129
      c-1.301,1.568-3.056,3.028-5.007,2.988c-2.277-0.047-3.387-1.501-3.33-4.234c0.022-1.104,0.296-3.312,0.342-5.557
      c0.03-1.461-0.02-2.214-0.226-3.291c0.946-0.143,1.86-0.287,2.771-0.269c1.593,0.032,2.261,0.827,2.224,2.648
      c-0.021,1.074-0.368,3.67-0.404,5.46c-0.025,1.236,0.191,1.727,0.549,1.734c0.488,0.01,1.775-0.809,3.018-2.703
      c0.126-1.397,0.319-2.857,0.345-4.094c0.024-1.171-0.056-2.052-0.241-2.574c0.557-0.088,1.207-0.172,1.794-0.159
      c2.082,0.042,3.003,1.134,2.95,3.704c-0.018,0.846-0.453,3.083-0.485,4.645c-0.03,1.496,0.149,2.216,0.735,2.228
      c1.105,0.022,4.277-3.882,5.82-7.722C83.419,40.539,84.29,40.915,84.269,41.924z"/>
    <path fill="#F9B43B" d="M77.202,60.895c-2.256,0.077-4.504,0.913-6.465,2.147l-0.014,0.711c-0.08,3.894-1.665,10.649-5.854,10.563
      c-1.74-0.035-2.698-1.084-2.661-2.897c0.058-2.818,2.301-5.81,5.189-8.077c0.003-0.172,0.007-0.319-0.016-0.444
      c-0.851,0.867-1.79,1.288-2.795,1.268c-1.666-0.034-2.599-1.181-2.559-3.115c0.06-2.941,3.23-5.743,6.269-5.681
      c1.004,0.021,1.999,0.435,1.982,1.243c-0.012,0.612-0.657,0.99-1.986,1.305c-0.164-0.418-0.381-0.595-0.601-0.599
      c-1.054-0.021-2.375,2.279-2.407,3.847c-0.014,0.687,0.176,0.959,0.471,0.965c0.637,0.014,1.696-1.46,1.355-2.789
      c1.193-0.761,1.511-0.754,1.976-0.745c1.03,0.021,1.481,0.717,1.613,2.632c1.906-0.965,3.879-1.538,5.545-1.504
      C76.858,59.736,77.39,60.114,77.202,60.895z M67.22,66.058c-1.606,1.877-2.631,4.014-2.671,5.999
      c-0.011,0.515,0.104,0.858,0.399,0.864C66.074,72.944,66.914,69.04,67.22,66.058z"/>
    <path fill="#F9B43B" d="M87.722,60.522c-0.023,1.176-4.121,7.342-8.676,7.248c-3.455-0.07-5.904-2.522-5.836-5.879
      c0.066-3.234,2.178-5.763,4.822-5.709c1.887,0.039,2.989,1.262,2.948,3.271c-0.044,2.156-1.718,3.715-3.185,4.688
      c0.475,0.794,1.151,1.25,1.984,1.267c1.886,0.039,4.408-2.263,6.316-5.679C87.083,59.431,87.739,59.713,87.722,60.522z
      M77.056,60.843c-0.01,0.467,0.005,0.907,0.07,1.301c0.775-0.794,1.383-1.712,1.406-2.839c0.011-0.539-0.177-0.91-0.398-0.915
      C77.669,58.38,77.081,59.594,77.056,60.843z"/>
    <polygon fill-rule="evenodd" clip-rule="evenodd" fill="#E55028" points="0.004,29.345 0.002,29.345 0,29.35 "/>
    <g>
      <path fill-rule="evenodd" clip-rule="evenodd" fill="#E55028" d="M16.591,51.478c0.337-0.337,0.674-0.673,1.104-1.103
        c0.116,0.836-0.023,1.49-0.405,2.104c-0.055,0.118-0.111,0.234-0.164,0.351c-0.107,0.34-0.333,0.576-0.631,0.754
        c-0.067,0.046-0.136,0.094-0.205,0.141c-0.119,0.075-0.241,0.148-0.361,0.222c-0.079,0.021-0.158,0.038-0.237,0.057
        c0.008,0.119,0.015,0.239,0.023,0.359c1.227,0.24,2.442,0.3,3.628-0.206c1.134-0.483,1.828-1.463,2.63-2.317
        c0.106-0.254,0.296-0.423,0.524-0.562c0.157-0.273,0.365-0.497,0.646-0.646c0.177-0.271,0.427-0.451,0.722-0.569
        c0.478-0.575,1.177-0.62,1.832-0.776c-0.083-0.703-0.898-0.643-1.186-1.135c-1.96-1.289-3.993-2.394-6.42-2.469
        c-0.127,0.037-0.252,0.076-0.38,0.114c-0.26,0.09-0.516,0.183-0.776,0.264c-2.304,0.732-4.358,2.038-6.617,2.875
        c-1.697,0.631-3.445,0.862-5.247,0.731c-0.536-0.04-1.04-0.441-1.604-0.149c0.951,1.728,2.491,2.779,4.218,3.572
        c1.992,0.916,4.024,0.583,6.045,0.054c0.499-0.235,0.998-0.472,1.496-0.706C15.681,52.117,16.136,51.796,16.591,51.478z"/>
      <path fill-rule="evenodd" clip-rule="evenodd" fill="#F9B43B" d="M32.426,58.221c-1.174-0.394-2.376-0.705-3.583-0.242
        c-1.696,0.652-3.396,1.288-5.128,1.84c-1.39,0.442-2.796,0.794-4.283,0.647c-0.32-0.032-0.71-0.216-1.011,0.236
        c2.812,1.149,5.504,2.677,8.71,1.845c0.903-0.364,1.808-0.727,2.711-1.091c0.066-0.042,0.133-0.082,0.199-0.122
        c1.264-0.631,2.45-1.41,3.77-1.928C33.724,58.573,32.918,58.577,32.426,58.221z"/>
      <path fill-rule="evenodd" clip-rule="evenodd" fill="#F9B43B" d="M22.016,35.08c-0.822-0.457-1.882-0.436-2.76-0.384
        c-1.202,0.067-2.362,0.073-3.533-0.165c-0.092-0.045-0.183-0.089-0.273-0.132c0.328,0.908,0.994,1.563,1.633,2.256
        c0.411,0.444,0.821,0.54,1.39,0.581c1.492,0.108,2.934-0.383,4.417-0.295c0.226,0.058,0.453,0.114,0.678,0.173
        C23.249,36.28,22.77,35.498,22.016,35.08z"/>
      <path fill-rule="evenodd" clip-rule="evenodd" fill="#E55028" d="M38.82,70.154c-1.171-0.494-2.296-0.518-3.313,0.302
        c-0.573,0.464-1.194,0.786-1.997,1.032c1.17,0.57,2.313,0.802,3.478,0.628c0.804-0.116,1.623-0.376,2.042-1.234
        C39.193,70.544,39.27,70.343,38.82,70.154z"/>
    </g>
  </symbol>

  <symbol>

  </symbol>


</svg>