<?xml version="1.0" encoding="utf-8"?>
<!-- Designed by Vexels.com - 2016 All Rights Reserved - https://vexels.com/terms-and-conditions/  -->

<svg version="1.1" id="Capa_1" xmlns="http://www.w3.org/2000/svg" xmlns:xlink="http://www.w3.org/1999/xlink" x="0px" y="0px"
	 width="1200px" height="1200px" viewBox="0 0 1200 1200" enable-background="new 0 0 1200 1200" xml:space="preserve">
<circle fill="#EDC600" cx="595.68" cy="604.681" r="523.634"/>
<path fill="#BE0411" d="M1092.665,604.681c0-274.477-222.508-496.984-496.985-496.984S98.695,330.204,98.695,604.681
	c0,274.474,222.507,496.985,496.984,496.985S1092.665,879.155,1092.665,604.681z"/>
<circle fill="#003E5D" cx="595.679" cy="604.681" r="481.727"/>
<g>
	<defs>
		<circle id="SVGID_1_" cx="595.679" cy="604.681" r="481.727"/>
	</defs>
	<clipPath id="SVGID_2_">
		<use xlink:href="#SVGID_1_"  overflow="visible"/>
	</clipPath>
	<path opacity="0.6" clip-path="url(#SVGID_2_)" fill="#211915" d="M930.062,395.876l210.956,327.635l-55.562,71.949
		c0,0-195.351,266.387-204.23,270.827c-8.88,4.439-440.423,148.607-440.423,148.607l-208.898-547.08l92.125-89.905L930.062,395.876z
		"/>
</g>
<g>
	<path fill="#D9A760" d="M295.393,730.3c0,0,60.859,104.489,299.696,101.044c238.833-3.443,287.06-83.822,312.322-121.715
		c25.263-37.89-24.112-27.558-24.112-27.558L324.1,686.665L295.393,730.3z"/>
	<path opacity="0.2" fill="#211915" d="M383.541,766.138c2.332,5.827,10.49,11.654,17.48,1.166
		c6.992-10.488,39.623-20.979,39.623-20.979s12.818,34.964,16.316,39.627c3.494,4.657,1.167,26.802,17.48,12.817
		c16.316-13.984,51.277-25.636,51.277-25.636l23.306,26.805c0,0,15.153,10.484,37.293-8.161
		c22.144-18.644,46.616-16.316,69.924-4.66c23.309,11.652,33.795,13.985,50.112-3.498c16.313-17.48,27.968-16.315,53.606-13.984
		c25.639,2.331,22.143-3.498,51.277-24.474c29.135-20.976,66.429-31.464,66.429-31.464l-441.683,8.158
		c0,0-75.748-12.819-75.748-9.321C360.233,716.028,383.541,766.138,383.541,766.138z"/>
	<path fill="#AABE36" d="M330.987,722.261c4.597,6.885,36.745,66.603,48.229,53.968c11.48-12.632,42.484-59.71,44.781-27.558
		c2.295,32.148,16.076,63.151,28.705,47.079c12.631-16.079,65.451-37.895,65.451-26.411c0,11.48-6.89,41.336,31.002,26.411
		c37.892-14.931,33.3-34.451,56.265-34.451c22.963,0,110.233,53.969,119.418,31.005c9.186-22.965-12.633-42.485,29.852-34.448
		c42.489,8.037,52.821-8.04,67.749-21.817c14.928-13.778,47.079-14.927,58.561-14.927c11.484,0,34.446-21.814,34.446-26.41
		c0-4.592,1.15-29.853,29.855-44.78c28.707-14.929,21.821-37.893,3.448-44.786c-18.373-6.888-57.413-10.332-53.969-11.48
		c3.445-1.147-587.906,32.148-587.906,32.148s-42.483,3.446-62.004,26.412c-19.522,22.964,0,24.112,35.594,37.893
		C316.059,703.887,330.987,722.261,330.987,722.261z"/>
	<path opacity="0.3" fill="#211915" d="M308.955,746.324c3.497-1.164,30.3-10.486,30.3-10.486l5.829,5.829
		c0,0,46.615-6.995,59.433-9.325c12.821-2.33,39.623,18.647,71.089,18.647c31.464,0,127.028,9.324,163.153,2.329
		c36.125-6.994,71.088-13.981,85.075-13.981c13.98,0,56.944-6.353,75.749-11.657c45.449-12.819,97.265,2.276,97.889-1.163
		c2.333-12.82,15.153-18.648,15.153-34.962c0-35.443,1.164-44.286,4.659-44.286c3.497,0-58.269-29.135-61.765-30.3
		c-3.497-1.166-342.621-8.155-346.117-6.99c-3.496,1.163-196.951,32.628-196.951,32.628l-34.961,60.602L308.955,746.324z"/>
	<path fill="#EDC600" d="M279.317,638.438c-2.296,3.445-14.926,41.336-13.778,60.857c1.148,19.52,3.443,31.005,3.443,31.005
		s105.639-3.444,181.423-2.298c75.787,1.145,138.938,17.222,181.425,2.298c42.485-14.929,143.533-25.265,148.125-24.114
		c4.592,1.148,144.678,18.373,165.346,25.262c-8.038-47.076-43.632-122.862-43.632-122.862s-484.564,32.153-484.564,35.597
		C417.105,647.624,279.317,638.438,279.317,638.438z"/>
	<path fill="#6F4820" d="M270.752,578.537c0,0-33.681,62.758,31.868,100.387c72.764,41.763,124.517,74.257,390.911,65.072
		c52.82-4.594,133.505-33.217,151.875-40.108c18.371-6.888,118.49-56.833,75.467-126.944
		c-17.225-22.966-146.662,0.638-150.104,1.786c-3.444,1.148-459.302,10.333-454.71,8.04
		C320.653,584.471,270.752,578.537,270.752,578.537z"/>
	<path opacity="0.3" fill="#211915" d="M291.475,616.968c5.829,1.165,122.366,85.073,325.144,85.073
		c34.96,6.992,100.222,39.625,100.222,39.625l13.985-4.665l23.865,20.855l15.756-44.161l29.137-29.132
		c0,0,47.779-18.648,58.269-33.798c10.488-15.151,20.976-20.979,17.48-23.308c-3.496-2.331-275.03,8.157-275.03,8.157
		l-273.867-45.448c0,0-45.448-8.161-45.448-4.665C280.987,588.999,291.475,616.968,291.475,616.968z"/>
	<path fill="#C2391D" d="M273.94,591.283c20.715,22.309,84.516,98.087,310.72,100.388c199.177-3.188,301.157-19.122,293.189-103.573
		c-25.261-41.338-54.262-41.521-54.262-41.521l-452.411,25.264L273.94,591.283z"/>
	<path fill="#EDC600" d="M447.625,586.505c4.592,2.297,318.552,166.758,318.552,166.758s28.705-82.672,83.821-125.16
		c55.118-42.486-51.819-36.82-51.819-36.82L447.625,586.505z"/>
	<path fill="#AABE36" d="M265.913,528.652c-2.299,3.443-11.483,33.3-6.891,56.264c4.592,22.964,51.673,55.116,48.229,31.003
		c-3.446-24.114,18.371-12.632,26.408-4.593c8.038,8.037,21.815,13.78,31,5.741c9.188-8.038,34.449-2.297,66.602,24.113
		c32.15,26.411,42.487,19.521,44.781,1.15c2.294-18.372,12.632-22.966,24.114,5.741c11.482,28.705,19.518,40.188,60.854,29.854
		c41.342-10.334,52.824-33.299,59.711-42.487c6.89-9.184,28.706-17.221,25.262,3.445c-3.444,20.669,13.777,40.188,33.297,20.669
		c19.522-19.521,20.672-20.669,45.933-6.891c25.262,13.78,44.781,20.668,57.41,1.148c12.63-19.521,24.112,4.592,34.447-13.778
		c10.337-18.373,60.861,12.63,75.788-8.039c14.926-20.667,21.814-37.888,28.703-47.077c6.891-9.188,9.187-29.856,27.56-22.964
		c18.372,6.889,21.816-52.82-24.114-60.86c-45.927-8.037-640.725,16.076-640.725,16.076L265.913,528.652z"/>
	<path opacity="0.3" fill="#211915" d="M258.439,555.418c0,0,2.132,1.421,23.467,9.247c21.336,7.819,104.539,33.42,137.255,46.224
		c32.712,12.801,136.542,18.492,192.011,10.668c55.473-7.824,100.986-4.979,131.565-7.824c30.582-2.844,62.586-9.244,88.187-21.333
		c25.6-12.091,141.521-37.694,106.674-83.92c-81.074,4.268-631.511,3.556-631.511,3.556l-40.174,16.617
		C265.913,528.652,257.727,549.018,258.439,555.418z"/>
	<g>
		
			<radialGradient id="SVGID_3_" cx="594.8872" cy="386.7793" r="184.3458" gradientTransform="matrix(-4.371139e-008 1 -2.0054 -8.765750e-008 1370.5227 -208.1078)" gradientUnits="userSpaceOnUse">
			<stop  offset="0.4488" style="stop-color:#D3954A"/>
			<stop  offset="0.5628" style="stop-color:#CA8942"/>
			<stop  offset="0.833" style="stop-color:#B87134"/>
			<stop  offset="1" style="stop-color:#B2682E"/>
		</radialGradient>
		<path fill="url(#SVGID_3_)" d="M257.742,521.438c-1.812-3.146-59.709-106.789,60.856-168.793
			c120.566-62.005,343.329-111.383,558.051-5.741c117.122,70.042,62.004,191.755,25.261,210.131
			c-36.743,18.37-177.978,76.933-431.743,52.818C334.673,592.631,284.148,567.369,257.742,521.438z"/>
		<path fill="#FAFAE1" d="M375.16,436.999c0-6.992-3.102-12.662-6.928-12.662c-3.821,0-6.924,5.669-6.924,12.662
			c0,6.997,3.103,12.666,6.924,12.666C372.058,449.665,375.16,443.995,375.16,436.999z"/>
		<path fill="#FAFAE1" d="M696.507,443.33c0-6.992-3.102-12.662-6.926-12.662s-6.928,5.67-6.928,12.662
			c0,6.997,3.104,12.667,6.928,12.667S696.507,450.327,696.507,443.33z"/>
		<path fill="#FAFAE1" d="M813.082,426.35c-2.758-6.427-7.846-10.412-11.362-8.9c-3.512,1.51-4.124,7.94-1.364,14.368
			c2.762,6.426,7.85,10.412,11.364,8.904C815.234,439.21,815.844,432.778,813.082,426.35z"/>
		<path fill="#FAFAE1" d="M503.346,426.586c5.467-4.361,7.964-10.321,5.58-13.315c-2.384-2.988-8.752-1.877-14.218,2.484
			c-5.471,4.363-7.967,10.321-5.582,13.312C491.51,432.057,497.876,430.946,503.346,426.586z"/>
		<path fill="#FAFAE1" d="M604.688,475.107c5.467-4.36,7.965-10.318,5.581-13.313c-2.384-2.987-8.75-1.876-14.22,2.484
			c-5.467,4.361-7.965,10.32-5.581,13.31C592.852,480.579,599.216,479.472,604.688,475.107z"/>
		<path fill="#FAFAE1" d="M456.046,504.423c5.466-4.362,7.964-10.319,5.579-13.312c-2.383-2.989-8.748-1.876-14.216,2.483
			c-5.471,4.36-7.968,10.32-5.584,13.308C444.208,509.896,450.577,508.784,456.046,504.423z"/>
		
			<ellipse transform="matrix(0.6236 0.7818 -0.7818 0.6236 555.8362 -427.337)" fill="#FAFAE1" cx="721.668" cy="363.517" rx="6.927" ry="12.664"/>
		
			<ellipse transform="matrix(0.6235 0.7818 -0.7818 0.6235 467.572 -195.0573)" fill="#FAFAE1" cx="436.304" cy="387.927" rx="6.925" ry="12.663"/>
		<path fill="#FAFAE1" d="M618.521,376.761c6.303,3.029,12.755,2.688,14.411-0.761c1.654-3.447-2.116-8.698-8.416-11.728
			c-6.308-3.027-12.758-2.688-14.413,0.76C608.451,368.481,612.217,373.729,618.521,376.761z"/>
		<path opacity="0.4" fill="#BA8047" d="M252.804,479.886c0,0,56.513,118.066,359.771,109.981
			c174.881-6.067,314.474-43.263,332.67-127.164c-11.116,59.641-17.606,132.542-337.629,149.606
			C443.859,612.309,254.826,576.931,252.804,479.886z"/>
	</g>
</g>
<path fill="#BE0411" d="M1092.76,924.247v-7.036c0-4.544,1.738-7.964,4.352-10.276c9.931-37.8,13.229-77.43,14.985-116.301
	c0.34-7.52,5.328-11.979,11.049-13.363c-1.644-36.263-2.914-74.089-44.376-78.139c-255.455,6.474-540.767,65.779-666.399,95.199
	c-78.575,23.593-159.877,24.433-203.258,20.496c-63.873-5.795-79.939-70.579-80.849-84.609
	c3.5,300.363,138.072,352.458,387.694,293.759c341.702-100.667,576.507-86.882,576.507-86.882s0.779-2.064,2.075-5.765
	C1093.428,929.367,1092.76,927.004,1092.76,924.247z"/>
<path opacity="0.3" fill="#211915" d="M936.532,941.424l32.216-145.616c0,0,152.061-20.619,130.152-92.785
	c0,0,23.816-1.326,13.197,87.612c-10.617,88.937-78.917,153.369-78.917,149.501C1033.181,936.271,932.665,944.004,936.532,941.424z"
	/>
<path fill="#EDC600" d="M1075.586,699.397c0,0,55.239-8.323,48.511,70.917c-4.416,52.016-20.681,166.566-37.161,191.659
	c-49.185,74.913-126.092,72.744-126.092,72.744l24.57-204.741C985.415,829.977,1188.333,720.586,1075.586,699.397z"/>
</svg>
